<svg width="18" height="18" viewBox="0 0 18 18" fill="none" xmlns="http://www.w3.org/2000/svg">
<path d="M7.12685 3.19291C6.89905 2.62343 6.34749 2.25 5.73413 2.25H3.67105C2.88623 2.25 2.25 2.88607 2.25 3.6709C2.25 10.3419 7.65808 15.75 14.3291 15.75C15.1139 15.75 15.75 15.1137 15.75 14.3289L15.7503 12.2655C15.7503 11.6521 15.377 11.1006 14.8075 10.8728L12.8302 10.0822C12.3186 9.87758 11.7362 9.96967 11.313 10.3224L10.8026 10.748C10.2066 11.2447 9.32972 11.2052 8.78115 10.6566L7.34417 9.21829C6.79559 8.66972 6.75505 7.7935 7.25171 7.19751L7.67725 6.68722C8.02996 6.26397 8.12287 5.68137 7.91825 5.16982L7.12685 3.19291Z" stroke="black" stroke-width="2" stroke-linecap="round" stroke-linejoin="round"/>
</svg>
