<svg width="18" height="18" viewBox="0 0 18 18" fill="none" xmlns="http://www.w3.org/2000/svg">
<path d="M12.75 12.75C11.9216 12.75 11.25 13.4216 11.25 14.25C11.25 15.0784 11.9216 15.75 12.75 15.75C13.5784 15.75 14.25 15.0784 14.25 14.25C14.25 13.4216 13.5784 12.75 12.75 12.75ZM12.75 12.75H6.97046C6.62466 12.75 6.45145 12.75 6.30908 12.6885C6.18349 12.6342 6.07454 12.5468 5.99515 12.4354C5.90618 12.3105 5.87039 12.1435 5.79956 11.8129L3.95361 3.19849C3.88113 2.86023 3.8444 2.69128 3.75439 2.56494C3.67501 2.45351 3.56608 2.36581 3.44049 2.31154C3.29809 2.25 3.12584 2.25 2.7799 2.25H2.25M4.5 4.5H14.1549C14.6962 4.5 14.9666 4.5 15.1483 4.61277C15.3075 4.71155 15.424 4.86646 15.4748 5.04675C15.5328 5.25257 15.4583 5.51247 15.3082 6.03259L14.2698 9.63259C14.1801 9.94358 14.1352 10.0988 14.0442 10.2142C13.9639 10.316 13.8579 10.3957 13.7378 10.4447C13.6021 10.5 13.4408 10.5 13.1191 10.5H5.79785M6 15.75C5.17157 15.75 4.5 15.0784 4.5 14.25C4.5 13.4216 5.17157 12.75 6 12.75C6.82843 12.75 7.5 13.4216 7.5 14.25C7.5 15.0784 6.82843 15.75 6 15.75Z" stroke="black" stroke-width="2" stroke-linecap="round" stroke-linejoin="round"/>
</svg>
