<svg width="34" height="32" viewBox="0 0 34 32" fill="none" xmlns="http://www.w3.org/2000/svg">
<path d="M19.8334 13.3333V22.6667M14.1667 13.3333V22.6667M8.50002 8V23.7333C8.50002 25.2268 8.50002 25.973 8.80884 26.5435C9.08048 27.0452 9.51361 27.454 10.0467 27.7096C10.6522 28 11.4453 28 13.029 28H20.9711C22.5548 28 23.3467 28 23.9522 27.7096C24.4853 27.454 24.9199 27.0452 25.1915 26.5435C25.5 25.9736 25.5 25.228 25.5 23.7375V8M8.50002 8H11.3334M8.50002 8H5.66669M11.3334 8H22.6667M11.3334 8C11.3334 6.75749 11.3334 6.13654 11.549 5.64648C11.8366 4.99308 12.3878 4.47364 13.0821 4.20299C13.6027 4 14.2632 4 15.5834 4H18.4167C19.7369 4 20.3969 4 20.9176 4.20299C21.6119 4.47364 22.1633 4.99308 22.4509 5.64648C22.6665 6.13654 22.6667 6.75749 22.6667 8M22.6667 8H25.5M25.5 8H28.3334" stroke="black" stroke-opacity="0.37" stroke-width="2" stroke-linecap="round" stroke-linejoin="round"/>
</svg>
