<svg width="31" height="30" viewBox="0 0 31 30" fill="none" xmlns="http://www.w3.org/2000/svg">
<path d="M22.2382 24.1653C20.5826 22.376 18.1772 21.25 15.5 21.25C12.8228 21.25 10.4172 22.376 8.76164 24.1653M15.5 26.25C9.07969 26.25 3.875 21.2132 3.875 15C3.875 8.7868 9.07969 3.75 15.5 3.75C21.9203 3.75 27.125 8.7868 27.125 15C27.125 21.2132 21.9203 26.25 15.5 26.25ZM15.5 17.5C13.3599 17.5 11.625 15.8211 11.625 13.75C11.625 11.6789 13.3599 10 15.5 10C17.6401 10 19.375 11.6789 19.375 13.75C19.375 15.8211 17.6401 17.5 15.5 17.5Z" stroke="white" stroke-width="2" stroke-linecap="round" stroke-linejoin="round"/>
</svg>
